<svg width="363" height="417" viewBox="0 0 363 417" fill="none" xmlns="http://www.w3.org/2000/svg">
<path d="M195.77 295.741L187.581 304.102L180.018 314.48L180.018 318.589L195.378 320.879L202.283 310.796L203.797 307.469L209.282 306.097L211.146 308.892L208.349 310.796V319.138L212.078 320.69L217.67 312.928L216.899 306.187L213.321 303.614L212.699 298.335L204.716 298.479L201.016 302.736L195.77 295.741Z" class="region-chubu" stroke="#FAFAFA" stroke-width="1.5" stroke-linejoin="round"/>
<path d="M206.889 282.68L196.22 286.543L195.778 295.752L201.014 302.733L204.698 298.478L212.695 298.369L217.391 292.48L212.356 286.99L206.889 282.68Z" class="region-chubu" stroke="#FAFAFA" stroke-width="1.5" stroke-linejoin="round"/>
<path d="M126.042 329.424L126.551 339.631L133.189 348.777L141.885 351.589L146.847 344.832L143.047 339.337L136.338 334.327L139.582 330.202L138.624 325.929L126.042 329.424Z" class="region-kinki" stroke="#FAFAFA" stroke-width="1.5" stroke-linejoin="round"/>
<path d="M142.997 339.325L148.39 334.645L147.768 317.568L150.564 313.221L154.914 312.6L157.063 304.227L161.439 305.459L163.604 309.505L158.208 317.765L166.677 324.982L165.267 329.598L160.649 328.621L152.683 333.975L153.102 337.736L146.85 344.812L142.997 339.325Z" class="region-kinki" stroke="#FAFAFA" stroke-width="1.5" stroke-linejoin="round"/>
<path d="M138.623 325.9L140.172 316.351L143.564 316.94L147.78 317.648L148.485 334.731L142.992 339.338L136.351 334.346L139.579 330.199L138.623 325.9Z" class="region-kinki" stroke="#FAFAFA" stroke-width="1.5" stroke-linejoin="round"/>
<path d="M140.155 316.345L138.182 311.12L133.611 312.446L132.888 318.2L132.831 322.13L126.042 329.42L138.624 325.903L140.155 316.345Z" class="region-kinki" stroke="#FAFAFA" stroke-width="1.5" stroke-linejoin="round"/>
<path d="M147.783 317.656L143.845 308.42L142.996 300.027L151.733 292.392L157.061 296.783L157.061 304.248L154.996 312.623L150.55 313.237L147.783 317.656Z" class="region-kinki" stroke="#FAFAFA" stroke-width="1.5" stroke-linejoin="round"/>
<path d="M147.783 317.656L140.157 316.35L138.129 311.082L133.612 312.468L132.21 306.184L124.321 300.88L122.064 291.709L129.273 288.288L132.061 290.442L129.796 293.66L136.577 299.267L142.996 300.028L143.832 308.409L147.783 317.656Z" class="region-kinki" stroke="#FAFAFA" stroke-width="1.5" stroke-linejoin="round"/>
<path d="M131.524 295.129L134.952 293.355L138.277 295.511L148.61 289.41L145.835 282.421L152.091 273.948L163.027 280.251L164.23 286.537L155.728 288.576L151.821 292.333L142.993 300.033L136.548 299.374L131.524 295.129Z" class="region-chubu" stroke="#FAFAFA" stroke-width="1.5" stroke-linejoin="round"/>
<path d="M216.92 306.206L213.321 303.614L212.699 298.335L217.387 292.456L224.506 294.61L231.565 294.851L229.068 304.191L222.737 300.954L218.005 302.233L216.92 306.206Z" class="region-kanto" stroke="#FAFAFA" stroke-width="1.5" stroke-linejoin="round"/>
<path d="M233.728 283.239L228.381 277.458L217.33 275.258L206.9 282.702L212.385 286.988L233.289 288.1L233.728 283.239Z" class="region-kanto" stroke="#FAFAFA" stroke-width="1.5" stroke-linejoin="round"/>
<path d="M217.381 292.46L214.413 289.239L212.345 286.969L233.296 288.09L233.729 289.46L234.575 292.068L231.558 294.854L224.466 294.624L217.381 292.46Z" class="region-kanto" stroke="#FAFAFA" stroke-width="1.5" stroke-linejoin="round"/>
<path d="M186.301 260.264L182.561 271.634L181.94 282.501L177.901 287.158L182.561 297.714L181.458 302.795L187.577 304.121L195.767 295.736L196.222 286.498L206.871 282.655L204.932 270.702L200.271 269.46L201.825 264.182L206.714 261.759L202.865 254.499L186.301 260.264Z" class="region-chubu" stroke="#FAFAFA" stroke-width="1.5" stroke-linejoin="round"/>
<path d="M180.01 318.583L172.374 320.93L172.708 316.955L168.199 315.441L165.94 316.188L163.594 309.522L161.457 305.435L163.912 299.48L168.999 298.301L171.579 302.648L181.451 302.794L187.572 304.097L180.021 314.608L180.01 318.583Z" class="region-chubu" stroke="#FAFAFA" stroke-width="1.5" stroke-linejoin="round"/>
<path d="M151.724 292.412L155.711 288.553L164.206 286.424L163.04 280.297L166.404 273.807L173.551 269.46L182.621 271.639L181.947 282.488L177.85 287.206L182.442 297.745L181.461 302.791L171.575 302.662L169.008 298.252L163.954 299.422L161.466 305.433L157.064 304.241L157.192 296.721L151.724 292.412Z" class="region-chubu" stroke="#FAFAFA" stroke-width="1.5" stroke-linejoin="round"/>
<path d="M166.396 273.858L163.919 269.46L166.094 259.214L170.534 254.316L170.986 246.26L174.966 244.872L176.593 239.397L161.965 244.306L162.567 259.778L152.105 273.935L163.048 280.298L166.396 273.858Z" class="region-chubu" stroke="#FAFAFA" stroke-width="1.5" stroke-linejoin="round"/>
<path d="M166.396 273.858L163.83 269.34L166.222 259.14L168.378 256.727L171.482 261.3L177.178 261.205L178.05 256.588L183.427 254.881L186.314 260.259L182.629 271.638L173.557 269.444L166.396 273.858Z" class="region-chubu" stroke="#FAFAFA" stroke-width="1.5" stroke-linejoin="round"/>
<path d="M132.893 318.194L124.998 319.958L117.81 315.752L109.64 316.915L107.164 311.88L110.478 303.924L113.869 302.552L111.212 292.318L122.067 291.697L124.298 300.834L132.235 306.223L133.615 312.457L132.893 318.194Z" class="region-kinki" stroke="#FAFAFA" stroke-width="1.5" stroke-linejoin="round"/>
<path d="M110.422 303.921L105.061 304.347L101.511 300.712L93.6667 300.8L86.874 307.719L82.2725 306.843L87.5508 297.318L92.7161 294.643L103.245 295.526L111.205 292.321L113.864 302.532L110.422 303.921Z" class="region-chugoku" stroke="#FAFAFA" stroke-width="1.5" stroke-linejoin="round"/>
<path d="M110.528 303.878L105.047 304.34L101.511 300.679L93.6659 300.769L86.8768 307.737L87.7967 314.17L89.1974 323.534L95.111 322.258L101.015 324.527L109.633 316.919L107.175 311.864L110.528 303.878Z" class="region-chugoku" stroke="#FAFAFA" stroke-width="1.5" stroke-linejoin="round"/>
<path d="M87.557 297.32L80.4725 294.511L71.868 297.392L71.1054 301.151L54.0833 316.905L50.3176 318.615L50.4125 324.011L53.6117 328.828L59.6155 325.105L62.6299 315.412L71.868 313.86L75.9901 306.869H82.2646L87.557 297.32Z" class="region-chugoku" stroke="#FAFAFA" stroke-width="1.5" stroke-linejoin="round"/>
<path d="M86.8773 307.729L82.2591 306.859L76.0056 306.887L71.9237 313.819L62.6394 315.427L59.6424 325.072L61.0764 328.452L62.3119 331.201L67.9121 326.701L71.231 331.114L89.1967 323.526L86.8773 307.729Z" class="region-chugoku" stroke="#FAFAFA" stroke-width="1.5" stroke-linejoin="round"/>
<path d="M59.6539 325.09L53.626 328.837L50.4156 323.995L50.323 318.624L42.6742 325.589L32.1405 326.64L33.7207 338.139L51.1356 335.599L61.2253 339.704L62.3232 331.219L59.6539 325.09Z" class="region-chugoku" stroke="#FAFAFA" stroke-width="1.5" stroke-linejoin="round"/>
<path d="M105.097 325.822L92.8353 329.877L93.6765 336.54L103.9 333.591L111.959 331.316L105.097 325.822Z" region="region-shikoku" stroke="#FAFAFA" stroke-width="1.5" stroke-linejoin="round"/>
<path d="M111.961 331.317L115.506 331.862L117.199 341.212L108.903 349.251L100.361 344.126L93.5779 340.148L93.6788 336.54L111.961 331.317Z" region="region-shikoku" stroke="#FAFAFA" stroke-width="1.5" stroke-linejoin="round"/>
<path d="M93.6758 336.555L82.2803 338.356L78.4229 334.372L72.9306 338.657L71.9484 344.134L64.6245 350.134L68.8802 365.613L72.1024 366.157L78.317 350.536L83.9201 342.432L93.578 340.074L93.6758 336.555Z" region="region-shikoku" stroke="#FAFAFA" stroke-width="1.5" stroke-linejoin="round"/>
<path d="M72.1077 366.144L71.9907 369.581L78.763 368.737L85.8979 353.283L96.1188 348.794L105.016 356.549L108.905 349.252L93.5668 340.079L83.8856 342.429L78.2754 350.581L72.1077 366.144Z" region="region-shikoku" stroke="#FAFAFA" stroke-width="1.5" stroke-linejoin="round"/>
<path d="M23.4971 339.615L14.764 350.123L23.3294 352.213L20.3258 359.482L22.4647 363.247L31.5597 359.811L32.8025 351.117L39.1651 347.17L33.7097 338.134L23.4971 339.615Z" class="region-kyushu-okinawaken" stroke="#FAFAFA" stroke-width="1.5" stroke-linejoin="round"/>
<path d="M39.1642 347.171L43.6739 348.47L48.0889 345.149L52.0502 350.422L47.0903 356.535L53.644 356.979L57.056 366.655L53.8237 369.763L40.9466 367.497L37.5283 360.709L31.3924 359.829L32.8136 351.023L39.1642 347.171Z" class="region-kyushu-okinawaken" stroke="#FAFAFA" stroke-width="1.5" stroke-linejoin="round"/>
<path d="M22.4706 363.246L26.4189 373.246L20.6896 385.588L28.9388 387.642L36.8416 385.271L34.356 375.646L40.9408 367.477L37.5209 360.702L31.3982 359.829L22.4706 363.246Z" class="region-kyushu-okinawaken" stroke="#FAFAFA" stroke-width="1.5" stroke-linejoin="round"/>
<path d="M40.9423 367.477L34.4724 375.627L36.9176 385.193L28.9389 387.642L33.4239 396.138L37.189 403.672L42.1262 405.831L50.1625 375.339L53.8314 369.761L40.9423 367.477Z" class="region-kyushu-okinawaken" stroke="#FAFAFA" stroke-width="1.5" stroke-linejoin="round"/>
<path d="M28.9446 387.643L20.7835 385.583L15.7282 387.291L15.704 396.1L19.4514 401.05L15.8913 406.199L17.0638 409.639L24.2581 411.589L25.5542 409.228L23.4187 404.282L26.3288 401.066L30.2828 409.024L27.261 413.744L27.1473 416L36.5116 410.327L35.1278 405.597L37.2822 403.668L28.9446 387.643Z" class="region-kyushu-okinawaken" stroke="#FAFAFA" stroke-width="1.5" stroke-linejoin="round"/>
<path d="M20.3328 359.474L15.495 360.322L16.3434 364.407L11.7161 362.592L6.80753 354.287L9.40196 348.706L14.7709 350.115L23.362 352.175L20.3328 359.474Z" class="region-kyushu-okinawaken" stroke="#FAFAFA" stroke-width="1.5" stroke-linejoin="round"/>
<path d="M16.3453 364.411L20.4167 368.718L19.6532 372.798L15.782 373.757L14.7214 368.705L9.98498 371.702L6.03665 361.703L1.00002 356.642L2.94198 353.854L6.80922 354.292L11.7295 362.575L16.3453 364.411Z" class="region-kyushu-okinawaken" stroke="#FAFAFA" stroke-width="1.5" stroke-linejoin="round"/>
<path d="M281.483 1L272.127 9.55283L277.369 29.4854L273.309 38.05L273.527 50.659L266.956 55.4354L269.186 69.8141L262.111 74.3372L246.745 67.4945L242.949 72.025L248.228 78.5931L232.305 90.1572L232.274 101.252L240.567 112.366L236.004 120.678L240.022 127.243L252.414 115.419L258.461 117.954L264.273 114.184L252.446 104.071L248.152 106.331L242.116 99.7615L247.689 90.9481L254.243 92.4756L258.762 100.303L274.681 89.7475L307.663 111.507L319.081 87.3248L333.482 78.7833L349.369 80.3316L362 73.0471L354.952 67.736L351.456 55.1195L358.073 44.8889L356.886 40.2264L343.901 50.8159L331.298 47.7618L302.087 30.2972L292.045 12.8758L281.483 1Z" class="region-hokkaido-tohoku" stroke="#FAFAFA" stroke-width="1.5" stroke-linejoin="round"/>
<path d="M274.279 156.366L268.815 150.123L270.062 126.599L257.821 123.456L254.361 131.291L263.808 134.642L262.497 142.589L252.395 142.996L249.735 133.321L243.722 131.697L241.861 144.047L234.867 147.469L234.951 155.956L256.142 155.375L256.508 162.653L274.279 156.366Z" class="region-hokkaido-tohoku" stroke="#FAFAFA" stroke-width="1.5" stroke-linejoin="round"/>
<path d="M264.473 202.894L259.164 200.979L256.428 162.663L274.284 156.364L282.179 176.901L274.811 199.015L270.592 197.737L264.473 202.894Z" class="region-hokkaido-tohoku" stroke="#FAFAFA" stroke-width="1.5" stroke-linejoin="round"/>
<path d="M234.956 155.946L235.792 164.435L231.48 169.582L237.479 176.041L233.992 193.867L249.433 202.526L254.333 199.291L259.164 200.978L256.429 162.655L256.126 155.349L234.956 155.946Z" class="region-hokkaido-tohoku" stroke="#FAFAFA" stroke-width="1.5" stroke-linejoin="round"/>
<path d="M225.771 209.748L231.652 219.472L230.548 230.815L241.967 233.227L242.945 227.28L249.432 202.496L233.981 193.868L225.771 209.748Z" class="region-hokkaido-tohoku" stroke="#FAFAFA" stroke-width="1.5" stroke-linejoin="round"/>
<path d="M257.949 230.34L257.87 220.134L263.364 215.204L270.883 216.403L270.374 205.981L274.799 199.008L270.612 197.709L264.473 202.852L254.381 199.285L249.43 202.496L242.914 227.298L250.294 228.787L257.949 230.34Z" class="region-hokkaido-tohoku" stroke="#FAFAFA" stroke-width="1.5" stroke-linejoin="round"/>
<path d="M225.771 209.749L221.647 224.457L209.377 231.735L203.646 244.721L183.416 254.882L186.31 260.248L202.757 254.557L206.796 261.788L211.767 259.214L215.185 253.936L218.983 255.659V242.448L226.681 239.343L230.549 230.815L231.571 219.384L225.771 209.749Z" class="region-chubu" stroke="#FAFAFA" stroke-width="1.5" stroke-linejoin="round"/>
<path d="M218.992 255.668V242.468L226.672 239.358L230.558 230.824L241.942 233.213L242.926 227.307L257.961 230.348L259.184 254.523L254.336 259.132L242.208 255.865L233.213 250.487L222.744 257.338L218.992 255.668Z" class="region-hokkaido-tohoku" stroke="#FAFAFA" stroke-width="1.5" stroke-linejoin="round"/>
<path d="M206.872 282.65L205.078 270.829L200.354 269.422L201.765 264.161L211.665 259.349L215.225 253.985L222.738 257.332L221.399 264.161L228.378 277.434L217.316 275.261L206.872 282.65Z" class="region-kanto" stroke="#FAFAFA" stroke-width="1.5" stroke-linejoin="round"/>
<path d="M254.325 259.131L242.191 255.881L240.438 271.115L228.377 277.444L233.734 283.258L240.041 286.847L247.498 284.053L254.561 290.287L248.693 275.02L254.325 259.131Z" class="region-kanto" stroke="#FAFAFA" stroke-width="1.5" stroke-linejoin="round"/>
<path d="M222.734 257.327L233.176 250.475L242.188 255.867L240.427 271.118L228.374 277.429L221.319 264.092L222.734 257.327Z" class="region-kanto" stroke="#FAFAFA" stroke-width="1.5" stroke-linejoin="round"/>
<path d="M234.568 292.054L238.647 293.782L232.935 299.893L232.042 311.815L235.587 312.253L244.85 304.431L246.273 294.98L254.561 290.272L247.593 284.133L239.956 286.802L233.733 283.243L233.29 288.076L234.568 292.054Z" class="region-kanto" stroke="#FAFAFA" stroke-width="1.5" stroke-linejoin="round"/>
<path d="M324.591 360.873L319.195 365.763L313.83 364.553L312.425 367.367L314.425 370.197L310.663 373.641L309.037 382.822L314.457 382.265L316.521 373.596L327.507 366.363L324.591 360.873Z" class="region-kyushu-okinawaken" stroke="#FAFAFA" stroke-width="1.5" stroke-linejoin="round"/>
<path d="M351.513 335.958H297.956L266.099 370.1V406.088" stroke="#A1A1AA"/>
<rect x="226.916" y="274.188" width="39" height="21.1364" rx="10.5682" fill="white"/>
<rect x="226.916" y="274.188" width="39" height="21.1364" rx="10.5682" stroke="#E4E4E7"/>
<path d="M237.572 284.256H243.296V285.264H237.572V284.256ZM237.404 285.9H243.428V286.932H237.404V285.9ZM239.672 284.748H240.956V286.044C240.956 286.324 240.916 286.612 240.836 286.908C240.764 287.204 240.624 287.496 240.416 287.784C240.216 288.064 239.924 288.332 239.54 288.588C239.156 288.844 238.652 289.072 238.028 289.272C237.94 289.144 237.812 288.988 237.644 288.804C237.484 288.62 237.328 288.468 237.176 288.348C237.72 288.204 238.156 288.036 238.484 287.844C238.82 287.644 239.072 287.44 239.24 287.232C239.416 287.016 239.532 286.804 239.588 286.596C239.644 286.388 239.672 286.192 239.672 286.008V284.748ZM240.836 286.356C241.052 286.828 241.384 287.232 241.832 287.568C242.28 287.896 242.832 288.124 243.488 288.252C243.36 288.372 243.216 288.536 243.056 288.744C242.904 288.944 242.788 289.124 242.708 289.284C241.972 289.076 241.364 288.744 240.884 288.288C240.404 287.824 240.04 287.256 239.792 286.584L240.836 286.356ZM238.112 283.476L239.216 283.164C239.344 283.34 239.464 283.536 239.576 283.752C239.688 283.968 239.764 284.164 239.804 284.34L238.628 284.676C238.588 284.508 238.52 284.312 238.424 284.088C238.336 283.864 238.232 283.66 238.112 283.476ZM241.448 283.152L242.768 283.512C242.6 283.744 242.44 283.972 242.288 284.196C242.144 284.412 242.012 284.604 241.892 284.772L240.944 284.448C241.04 284.256 241.136 284.04 241.232 283.8C241.328 283.552 241.4 283.336 241.448 283.152ZM236.084 280.596H239.096V281.496H236.084V280.596ZM241.616 280.596H244.64V281.496H241.616V280.596ZM244.112 279.024H245.528V288.312C245.528 288.64 245.492 288.904 245.42 289.104C245.356 289.304 245.228 289.46 245.036 289.572C244.844 289.684 244.612 289.756 244.34 289.788C244.068 289.82 243.744 289.836 243.368 289.836C243.352 289.644 243.304 289.416 243.224 289.152C243.152 288.896 243.072 288.676 242.984 288.492C243.176 288.5 243.364 288.508 243.548 288.516C243.74 288.516 243.864 288.512 243.92 288.504C244 288.504 244.052 288.488 244.076 288.456C244.1 288.424 244.112 288.372 244.112 288.3V279.024ZM236.216 279.024H240.008V283.092H236.216V282.108H238.664V280.02H236.216V279.024ZM244.856 279.024V280.02H242.156V282.144H244.856V283.128H240.788V279.024H244.856ZM235.364 279.024H236.768V289.836H235.364V279.024ZM247.112 279.552H257.768V280.896H247.112V279.552ZM251.636 278.568H253.136V289.836H251.636V278.568ZM251.264 285.42L252.488 285.924C252.208 286.324 251.888 286.708 251.528 287.076C251.176 287.444 250.792 287.792 250.376 288.12C249.968 288.44 249.54 288.732 249.092 288.996C248.652 289.268 248.208 289.5 247.76 289.692C247.68 289.572 247.584 289.436 247.472 289.284C247.36 289.132 247.24 288.984 247.112 288.84C246.984 288.696 246.868 288.576 246.764 288.48C247.204 288.328 247.64 288.144 248.072 287.928C248.504 287.704 248.92 287.46 249.32 287.196C249.72 286.924 250.084 286.64 250.412 286.344C250.748 286.04 251.032 285.732 251.264 285.42ZM253.544 285.468C253.784 285.772 254.072 286.072 254.408 286.368C254.752 286.656 255.124 286.936 255.524 287.208C255.932 287.472 256.356 287.712 256.796 287.928C257.236 288.136 257.676 288.316 258.116 288.468C258.004 288.564 257.88 288.684 257.744 288.828C257.616 288.98 257.492 289.132 257.372 289.284C257.26 289.444 257.164 289.588 257.084 289.716C256.636 289.532 256.192 289.304 255.752 289.032C255.312 288.768 254.884 288.476 254.468 288.156C254.06 287.828 253.676 287.48 253.316 287.112C252.964 286.744 252.648 286.364 252.368 285.972L253.544 285.468ZM249.524 284.388V285.12H255.344V284.388H249.524ZM249.524 282.66V283.38H255.344V282.66H249.524ZM248.12 281.58H256.82V286.2H248.12V281.58Z" fill="#27272A"/>
<rect x="166.617" y="283.416" width="39" height="21.1364" rx="10.5682" fill="white"/>
<rect x="166.617" y="283.416" width="39" height="21.1364" rx="10.5682" stroke="#E4E4E7"/>
<path d="M175.173 289.872H185.085V295.896H183.573V291.288H176.613V295.956H175.173V289.872ZM175.917 293.88H184.413V295.296H175.917V293.88ZM179.325 287.784H180.849V299.052H179.325V287.784ZM193.101 288.48H196.605V289.824H194.505V299.064H193.101V288.48ZM186.789 288.948H192.585V290.196H186.789V288.948ZM186.525 292.296H192.741V293.604H186.525V292.296ZM188.985 287.88H190.389V289.728H188.985V287.88ZM187.473 290.52L188.661 290.28C188.781 290.544 188.885 290.84 188.973 291.168C189.061 291.496 189.121 291.784 189.153 292.032L187.893 292.32C187.885 292.08 187.841 291.792 187.761 291.456C187.681 291.112 187.585 290.8 187.473 290.52ZM190.701 290.232L192.045 290.52C191.917 290.848 191.789 291.176 191.661 291.504C191.541 291.824 191.429 292.1 191.325 292.332L190.197 292.044C190.261 291.876 190.325 291.688 190.389 291.48C190.453 291.264 190.509 291.048 190.557 290.832C190.613 290.608 190.661 290.408 190.701 290.232ZM187.713 297.228H191.421V298.476H187.713V297.228ZM187.221 294.396H192.201V299.028H190.797V295.644H188.553V299.076H187.221V294.396ZM196.233 288.48H196.509L196.725 288.42L197.781 289.08C197.565 289.664 197.329 290.28 197.073 290.928C196.825 291.568 196.585 292.144 196.353 292.656C196.689 293.016 196.941 293.364 197.109 293.7C197.285 294.028 197.401 294.34 197.457 294.636C197.521 294.932 197.553 295.212 197.553 295.476C197.553 295.924 197.501 296.296 197.397 296.592C197.293 296.888 197.125 297.116 196.893 297.276C196.669 297.436 196.393 297.536 196.065 297.576C195.929 297.592 195.777 297.604 195.609 297.612C195.449 297.612 195.285 297.612 195.117 297.612C195.109 297.412 195.073 297.176 195.009 296.904C194.953 296.632 194.869 296.396 194.757 296.196C194.893 296.212 195.017 296.224 195.129 296.232C195.241 296.232 195.345 296.228 195.441 296.22C195.521 296.212 195.597 296.2 195.669 296.184C195.749 296.168 195.817 296.14 195.873 296.1C195.977 296.036 196.049 295.94 196.089 295.812C196.137 295.676 196.161 295.504 196.161 295.296C196.161 294.96 196.077 294.584 195.909 294.168C195.749 293.744 195.425 293.3 194.937 292.836C195.057 292.548 195.177 292.228 195.297 291.876C195.425 291.516 195.545 291.156 195.657 290.796C195.777 290.428 195.885 290.084 195.981 289.764C196.085 289.444 196.169 289.18 196.233 288.972V288.48Z" fill="#27272A"/>
<rect x="230.617" y="171.763" width="87" height="21.1364" rx="10.5682" fill="white"/>
<rect x="230.617" y="171.763" width="87" height="21.1364" rx="10.5682" stroke="#E4E4E7"/>
<path d="M238.789 178.987H242.353V180.415H238.789V178.987ZM244.657 176.335H246.157V184.987C246.157 185.323 246.185 185.539 246.241 185.635C246.297 185.723 246.437 185.767 246.661 185.767C246.709 185.767 246.789 185.767 246.901 185.767C247.013 185.767 247.137 185.767 247.273 185.767C247.409 185.767 247.533 185.767 247.645 185.767C247.757 185.767 247.841 185.767 247.897 185.767C248.057 185.767 248.177 185.699 248.257 185.563C248.337 185.427 248.393 185.183 248.425 184.831C248.465 184.471 248.497 183.971 248.521 183.331C248.641 183.419 248.781 183.507 248.941 183.595C249.109 183.683 249.277 183.763 249.445 183.835C249.613 183.899 249.765 183.947 249.901 183.979C249.853 184.747 249.769 185.367 249.649 185.839C249.537 186.311 249.353 186.651 249.097 186.859C248.849 187.075 248.497 187.183 248.041 187.183C247.977 187.183 247.869 187.183 247.717 187.183C247.565 187.183 247.401 187.183 247.225 187.183C247.057 187.183 246.901 187.183 246.757 187.183C246.613 187.183 246.505 187.183 246.433 187.183C245.977 187.183 245.617 187.115 245.353 186.979C245.097 186.851 244.917 186.627 244.813 186.307C244.709 185.979 244.657 185.535 244.657 184.975V176.335ZM241.633 176.335H243.133V187.279H241.633V176.335ZM248.617 178.123L249.661 179.419C249.245 179.699 248.805 179.979 248.341 180.259C247.877 180.531 247.405 180.799 246.925 181.063C246.453 181.319 245.989 181.559 245.533 181.783C245.485 181.623 245.401 181.435 245.281 181.219C245.161 180.995 245.053 180.807 244.957 180.655C245.389 180.423 245.825 180.163 246.265 179.875C246.705 179.587 247.125 179.291 247.525 178.987C247.933 178.683 248.297 178.395 248.617 178.123ZM238.357 184.423C238.685 184.327 239.065 184.211 239.497 184.075C239.929 183.931 240.385 183.775 240.865 183.607C241.345 183.431 241.821 183.259 242.293 183.091L242.569 184.387C241.969 184.659 241.353 184.927 240.721 185.191C240.097 185.455 239.525 185.695 239.005 185.911L238.357 184.423ZM255.277 177.499H261.601V178.783H255.277V177.499ZM255.637 179.563H260.101V180.799H255.637V179.563ZM253.597 181.927H261.853V183.235H253.597V181.927ZM255.121 184.495H261.721V185.719H255.121V184.495ZM255.289 176.119L256.705 176.431C256.473 177.223 256.169 177.983 255.793 178.711C255.425 179.439 255.025 180.043 254.593 180.523C254.505 180.443 254.385 180.351 254.233 180.247C254.089 180.143 253.937 180.043 253.777 179.947C253.625 179.843 253.489 179.763 253.369 179.707C253.801 179.291 254.181 178.763 254.509 178.123C254.845 177.483 255.105 176.815 255.289 176.119ZM255.061 179.563H256.381C256.325 180.115 256.261 180.695 256.189 181.303C256.117 181.911 256.041 182.515 255.961 183.115C255.889 183.715 255.813 184.287 255.733 184.831C255.653 185.375 255.577 185.863 255.505 186.295L254.137 186.199C254.225 185.767 254.313 185.279 254.401 184.735C254.489 184.191 254.573 183.623 254.653 183.031C254.733 182.439 254.809 181.847 254.881 181.255C254.953 180.663 255.013 180.099 255.061 179.563ZM257.341 180.019H258.589C258.557 180.435 258.521 180.875 258.481 181.339C258.449 181.795 258.409 182.255 258.361 182.719C258.313 183.175 258.265 183.607 258.217 184.015C258.169 184.423 258.121 184.791 258.073 185.119H256.849C256.897 184.783 256.945 184.407 256.993 183.991C257.041 183.575 257.089 183.139 257.137 182.683C257.185 182.227 257.225 181.771 257.257 181.315C257.289 180.859 257.317 180.427 257.341 180.019ZM259.705 179.563H261.037C261.037 179.563 261.033 179.603 261.025 179.683C261.025 179.755 261.025 179.839 261.025 179.935C261.025 180.031 261.021 180.103 261.013 180.151C260.973 181.287 260.929 182.251 260.881 183.043C260.833 183.827 260.777 184.475 260.713 184.987C260.657 185.491 260.589 185.887 260.509 186.175C260.429 186.463 260.341 186.671 260.245 186.799C260.109 186.991 259.965 187.123 259.813 187.195C259.661 187.267 259.485 187.319 259.285 187.351C259.101 187.383 258.873 187.399 258.601 187.399C258.337 187.399 258.057 187.395 257.761 187.387C257.753 187.211 257.717 187.011 257.653 186.787C257.589 186.563 257.509 186.371 257.413 186.211C257.677 186.227 257.917 186.239 258.133 186.247C258.349 186.255 258.517 186.259 258.637 186.259C258.733 186.259 258.813 186.247 258.877 186.223C258.949 186.199 259.013 186.147 259.069 186.067C259.149 185.979 259.217 185.803 259.273 185.539C259.337 185.275 259.393 184.903 259.441 184.423C259.497 183.935 259.545 183.315 259.585 182.563C259.625 181.811 259.665 180.903 259.705 179.839V179.563ZM251.017 177.271L251.821 176.215C252.053 176.311 252.297 176.427 252.553 176.563C252.809 176.699 253.053 176.839 253.285 176.983C253.517 177.127 253.701 177.271 253.837 177.415L252.985 178.555C252.849 178.419 252.669 178.275 252.445 178.123C252.229 177.963 251.993 177.807 251.737 177.655C251.489 177.503 251.249 177.375 251.017 177.271ZM250.465 180.475L251.269 179.419C251.501 179.507 251.741 179.615 251.989 179.743C252.245 179.863 252.485 179.995 252.709 180.139C252.941 180.283 253.129 180.419 253.273 180.547L252.433 181.711C252.297 181.575 252.117 181.431 251.893 181.279C251.677 181.127 251.441 180.983 251.185 180.847C250.937 180.703 250.697 180.579 250.465 180.475ZM250.693 186.499C250.869 186.179 251.057 185.807 251.257 185.383C251.465 184.959 251.673 184.507 251.881 184.027C252.089 183.547 252.281 183.071 252.457 182.599L253.609 183.403C253.457 183.827 253.289 184.263 253.105 184.711C252.929 185.159 252.745 185.603 252.553 186.043C252.369 186.483 252.185 186.899 252.001 187.291L250.693 186.499ZM265.861 177.451H273.553V178.603H265.861V177.451ZM268.861 178.015L270.517 178.111C270.405 178.431 270.273 178.743 270.121 179.047C269.977 179.351 269.849 179.615 269.737 179.839L268.573 179.635C268.637 179.387 268.697 179.115 268.753 178.819C268.809 178.515 268.845 178.247 268.861 178.015ZM270.889 176.131L272.341 176.443C272.181 176.699 272.021 176.947 271.861 177.187C271.701 177.427 271.557 177.635 271.429 177.811L270.217 177.523C270.297 177.387 270.377 177.239 270.457 177.079C270.545 176.911 270.625 176.747 270.697 176.587C270.777 176.419 270.841 176.267 270.889 176.131ZM266.989 176.563L268.117 176.143C268.277 176.327 268.433 176.535 268.585 176.767C268.745 176.999 268.853 177.207 268.909 177.391L267.709 177.859C267.653 177.683 267.557 177.471 267.421 177.223C267.285 176.975 267.141 176.755 266.989 176.563ZM265.441 180.811V185.239H264.037V182.143H262.645V180.811H265.441ZM265.441 184.615C265.689 185.007 266.037 185.295 266.485 185.479C266.933 185.663 267.469 185.767 268.093 185.791C268.445 185.807 268.861 185.819 269.341 185.827C269.829 185.827 270.341 185.823 270.877 185.815C271.413 185.807 271.937 185.791 272.449 185.767C272.969 185.743 273.429 185.715 273.829 185.683C273.781 185.795 273.725 185.939 273.661 186.115C273.597 186.291 273.537 186.471 273.481 186.655C273.433 186.839 273.397 187.003 273.373 187.147C273.013 187.171 272.601 187.187 272.137 187.195C271.673 187.211 271.197 187.219 270.709 187.219C270.221 187.227 269.749 187.227 269.293 187.219C268.837 187.211 268.429 187.199 268.069 187.183C267.333 187.151 266.705 187.035 266.185 186.835C265.665 186.643 265.205 186.315 264.805 185.851C264.541 186.075 264.269 186.307 263.989 186.547C263.717 186.787 263.417 187.035 263.089 187.291L262.381 185.791C262.661 185.623 262.953 185.439 263.257 185.239C263.561 185.039 263.853 184.831 264.133 184.615H265.441ZM262.657 177.283L263.725 176.419C263.973 176.579 264.225 176.767 264.481 176.983C264.737 177.191 264.977 177.407 265.201 177.631C265.425 177.847 265.605 178.047 265.741 178.231L264.601 179.191C264.481 178.999 264.313 178.791 264.097 178.567C263.889 178.343 263.657 178.119 263.401 177.895C263.145 177.663 262.897 177.459 262.657 177.283ZM268.045 181.867V182.503H271.309V181.867H268.045ZM268.045 183.463V184.087H271.309V183.463H268.045ZM268.045 180.283V180.907H271.309V180.283H268.045ZM266.689 179.239H272.737V185.131H266.689V179.239ZM280.117 180.235C280.405 180.235 280.661 180.307 280.885 180.451C281.117 180.587 281.301 180.771 281.437 181.003C281.581 181.227 281.653 181.483 281.653 181.771C281.653 182.051 281.581 182.307 281.437 182.539C281.301 182.771 281.117 182.959 280.885 183.103C280.661 183.239 280.405 183.307 280.117 183.307C279.837 183.307 279.581 183.239 279.349 183.103C279.117 182.959 278.929 182.771 278.785 182.539C278.649 182.307 278.581 182.051 278.581 181.771C278.581 181.483 278.649 181.227 278.785 181.003C278.929 180.771 279.117 180.587 279.349 180.451C279.581 180.307 279.837 180.235 280.117 180.235ZM286.813 177.127H297.469V178.471H286.813V177.127ZM291.337 176.143H292.837V187.411H291.337V176.143ZM290.965 182.995L292.189 183.499C291.909 183.899 291.589 184.283 291.229 184.651C290.877 185.019 290.493 185.367 290.077 185.695C289.669 186.015 289.241 186.307 288.793 186.571C288.353 186.843 287.909 187.075 287.461 187.267C287.381 187.147 287.285 187.011 287.173 186.859C287.061 186.707 286.941 186.559 286.813 186.415C286.685 186.271 286.569 186.151 286.465 186.055C286.905 185.903 287.341 185.719 287.773 185.503C288.205 185.279 288.621 185.035 289.021 184.771C289.421 184.499 289.785 184.215 290.113 183.919C290.449 183.615 290.733 183.307 290.965 182.995ZM293.245 183.043C293.485 183.347 293.773 183.647 294.109 183.943C294.453 184.231 294.825 184.511 295.225 184.783C295.633 185.047 296.057 185.287 296.497 185.503C296.937 185.711 297.377 185.891 297.817 186.043C297.705 186.139 297.581 186.259 297.445 186.403C297.317 186.555 297.193 186.707 297.073 186.859C296.961 187.019 296.865 187.163 296.785 187.291C296.337 187.107 295.893 186.879 295.453 186.607C295.013 186.343 294.585 186.051 294.169 185.731C293.761 185.403 293.377 185.055 293.017 184.687C292.665 184.319 292.349 183.939 292.069 183.547L293.245 183.043ZM289.225 181.963V182.695H295.045V181.963H289.225ZM289.225 180.235V180.955H295.045V180.235H289.225ZM287.821 179.155H296.521V183.775H287.821V179.155ZM298.789 178.987H302.353V180.415H298.789V178.987ZM304.657 176.335H306.157V184.987C306.157 185.323 306.185 185.539 306.241 185.635C306.297 185.723 306.437 185.767 306.661 185.767C306.709 185.767 306.789 185.767 306.901 185.767C307.013 185.767 307.137 185.767 307.273 185.767C307.409 185.767 307.533 185.767 307.645 185.767C307.757 185.767 307.841 185.767 307.897 185.767C308.057 185.767 308.177 185.699 308.257 185.563C308.337 185.427 308.393 185.183 308.425 184.831C308.465 184.471 308.497 183.971 308.521 183.331C308.641 183.419 308.781 183.507 308.941 183.595C309.109 183.683 309.277 183.763 309.445 183.835C309.613 183.899 309.765 183.947 309.901 183.979C309.853 184.747 309.769 185.367 309.649 185.839C309.537 186.311 309.353 186.651 309.097 186.859C308.849 187.075 308.497 187.183 308.041 187.183C307.977 187.183 307.869 187.183 307.717 187.183C307.565 187.183 307.401 187.183 307.225 187.183C307.057 187.183 306.901 187.183 306.757 187.183C306.613 187.183 306.505 187.183 306.433 187.183C305.977 187.183 305.617 187.115 305.353 186.979C305.097 186.851 304.917 186.627 304.813 186.307C304.709 185.979 304.657 185.535 304.657 184.975V176.335ZM301.633 176.335H303.133V187.279H301.633V176.335ZM308.617 178.123L309.661 179.419C309.245 179.699 308.805 179.979 308.341 180.259C307.877 180.531 307.405 180.799 306.925 181.063C306.453 181.319 305.989 181.559 305.533 181.783C305.485 181.623 305.401 181.435 305.281 181.219C305.161 180.995 305.053 180.807 304.957 180.655C305.389 180.423 305.825 180.163 306.265 179.875C306.705 179.587 307.125 179.291 307.525 178.987C307.933 178.683 308.297 178.395 308.617 178.123ZM298.357 184.423C298.685 184.327 299.065 184.211 299.497 184.075C299.929 183.931 300.385 183.775 300.865 183.607C301.345 183.431 301.821 183.259 302.293 183.091L302.569 184.387C301.969 184.659 301.353 184.927 300.721 185.191C300.097 185.455 299.525 185.695 299.005 185.911L298.357 184.423Z" fill="#27272A"/>
<rect x="125.617" y="313.866" width="39" height="21.1364" rx="10.5682" fill="white"/>
<rect x="125.617" y="313.866" width="39" height="21.1364" rx="10.5682" stroke="#E4E4E7"/>
<path d="M138.733 321.607H144.613V322.939H138.733V321.607ZM141.169 322.195H142.597V327.439H141.169V322.195ZM137.953 318.979L139.669 319.291C139.661 319.395 139.553 319.467 139.345 319.507V321.751C139.345 322.151 139.325 322.587 139.285 323.059C139.245 323.523 139.165 324.007 139.045 324.511C138.933 325.007 138.761 325.491 138.529 325.963C138.297 326.427 137.997 326.851 137.629 327.235C137.565 327.131 137.469 327.015 137.341 326.887C137.221 326.759 137.093 326.635 136.957 326.515C136.821 326.395 136.697 326.307 136.585 326.251C137.001 325.811 137.305 325.331 137.497 324.811C137.689 324.283 137.813 323.755 137.869 323.227C137.925 322.691 137.953 322.191 137.953 321.727V318.979ZM142.993 318.259L144.181 319.351C143.685 319.527 143.141 319.687 142.549 319.831C141.957 319.967 141.353 320.087 140.737 320.191C140.129 320.295 139.537 320.383 138.961 320.455C138.929 320.287 138.869 320.091 138.781 319.867C138.693 319.635 138.609 319.447 138.529 319.303C139.065 319.223 139.609 319.131 140.161 319.027C140.713 318.915 141.233 318.795 141.721 318.667C142.217 318.539 142.641 318.403 142.993 318.259ZM136.441 322.915V327.343H135.037V324.247H133.645V322.915H136.441ZM136.441 326.719C136.689 327.111 137.037 327.399 137.485 327.583C137.933 327.767 138.469 327.871 139.093 327.895C139.445 327.911 139.861 327.923 140.341 327.931C140.829 327.931 141.341 327.927 141.877 327.919C142.413 327.911 142.937 327.895 143.449 327.871C143.969 327.847 144.429 327.819 144.829 327.787C144.781 327.899 144.725 328.043 144.661 328.219C144.597 328.395 144.537 328.575 144.481 328.759C144.433 328.943 144.397 329.107 144.373 329.251C144.013 329.275 143.601 329.291 143.137 329.299C142.673 329.315 142.197 329.323 141.709 329.323C141.221 329.331 140.749 329.331 140.293 329.323C139.837 329.315 139.429 329.303 139.069 329.287C138.333 329.255 137.705 329.139 137.185 328.939C136.665 328.747 136.205 328.419 135.805 327.955C135.541 328.179 135.269 328.411 134.989 328.651C134.717 328.891 134.417 329.139 134.089 329.395L133.381 327.895C133.661 327.727 133.953 327.543 134.257 327.343C134.561 327.143 134.853 326.935 135.133 326.719H136.441ZM133.657 319.387L134.725 318.523C134.973 318.683 135.225 318.871 135.481 319.087C135.737 319.295 135.977 319.511 136.201 319.735C136.425 319.951 136.605 320.151 136.741 320.335L135.601 321.295C135.481 321.103 135.313 320.895 135.097 320.671C134.889 320.447 134.657 320.223 134.401 319.999C134.145 319.767 133.897 319.563 133.657 319.387ZM153.241 322.975L154.189 322.459C154.373 322.595 154.565 322.755 154.765 322.939C154.965 323.123 155.117 323.291 155.221 323.443L154.225 323.995C154.129 323.859 153.985 323.695 153.793 323.503C153.609 323.303 153.425 323.127 153.241 322.975ZM145.669 323.395H156.601V324.535H145.669V323.395ZM146.845 326.479H150.085V327.307H146.845V326.479ZM146.833 324.967H150.733V328.867H146.833V327.967H149.641V325.867H146.833V324.967ZM146.161 324.967H147.241V329.227H146.161V324.967ZM147.985 325.375H148.885V328.471H147.985V325.375ZM150.289 318.247H151.681C151.673 319.263 151.721 320.259 151.825 321.235C151.929 322.203 152.081 323.107 152.281 323.947C152.489 324.779 152.729 325.511 153.001 326.143C153.281 326.775 153.593 327.271 153.937 327.631C154.281 327.983 154.641 328.159 155.017 328.159C155.153 328.159 155.257 328.111 155.329 328.015C155.409 327.919 155.473 327.755 155.521 327.523C155.577 327.291 155.621 326.967 155.653 326.551C155.797 326.695 155.973 326.835 156.181 326.971C156.389 327.099 156.581 327.199 156.757 327.271C156.669 327.871 156.553 328.331 156.409 328.651C156.273 328.971 156.089 329.191 155.857 329.311C155.625 329.439 155.321 329.503 154.945 329.503C154.417 329.503 153.937 329.355 153.505 329.059C153.073 328.763 152.685 328.355 152.341 327.835C151.997 327.307 151.697 326.687 151.441 325.975C151.193 325.263 150.981 324.487 150.805 323.647C150.637 322.807 150.509 321.931 150.421 321.019C150.341 320.099 150.297 319.175 150.289 318.247ZM145.897 320.191L146.521 319.375C146.721 319.495 146.937 319.639 147.169 319.807C147.401 319.967 147.621 320.127 147.829 320.287C148.037 320.447 148.201 320.595 148.321 320.731L147.673 321.667C147.545 321.523 147.381 321.367 147.181 321.199C146.981 321.023 146.765 320.847 146.533 320.671C146.309 320.487 146.097 320.327 145.897 320.191ZM148.765 321.163L149.713 320.863C149.817 321.079 149.917 321.315 150.013 321.571C150.109 321.819 150.193 322.063 150.265 322.303C150.345 322.535 150.401 322.739 150.433 322.915L149.437 323.275C149.405 323.091 149.353 322.879 149.281 322.639C149.209 322.399 149.129 322.151 149.041 321.895C148.953 321.631 148.861 321.387 148.765 321.163ZM147.553 318.223L148.621 318.691C148.389 319.011 148.157 319.335 147.925 319.663C147.701 319.983 147.493 320.255 147.301 320.479L146.533 320.095C146.653 319.919 146.777 319.723 146.905 319.507C147.033 319.291 147.153 319.071 147.265 318.847C147.377 318.615 147.473 318.407 147.553 318.223ZM148.885 319.207L149.917 319.723C149.645 320.043 149.353 320.383 149.041 320.743C148.729 321.095 148.421 321.435 148.117 321.763C147.813 322.083 147.521 322.363 147.241 322.603L146.497 322.171C146.769 321.907 147.053 321.607 147.349 321.271C147.645 320.927 147.925 320.575 148.189 320.215C148.461 319.855 148.693 319.519 148.885 319.207ZM151.897 320.131L152.521 319.339C152.713 319.467 152.921 319.611 153.145 319.771C153.377 319.931 153.597 320.091 153.805 320.251C154.013 320.411 154.181 320.555 154.309 320.683L153.649 321.583C153.529 321.447 153.369 321.295 153.169 321.127C152.969 320.951 152.757 320.779 152.533 320.611C152.309 320.435 152.097 320.275 151.897 320.131ZM154.849 320.983L155.797 320.671C155.909 320.871 156.013 321.091 156.109 321.331C156.213 321.571 156.305 321.803 156.385 322.027C156.473 322.251 156.537 322.451 156.577 322.627L155.569 322.999C155.537 322.823 155.481 322.619 155.401 322.387C155.329 322.155 155.245 321.919 155.149 321.679C155.053 321.431 154.953 321.199 154.849 320.983ZM152.029 321.763C152.533 321.747 153.133 321.723 153.829 321.691C154.525 321.659 155.241 321.627 155.977 321.595V322.495C155.305 322.551 154.645 322.607 153.997 322.663C153.349 322.719 152.757 322.771 152.221 322.819L152.029 321.763ZM145.849 321.967C146.353 321.951 146.953 321.927 147.649 321.895C148.345 321.863 149.061 321.827 149.797 321.787V322.747C149.125 322.803 148.465 322.859 147.817 322.915C147.169 322.971 146.577 323.019 146.041 323.059L145.849 321.967ZM153.517 318.223L154.573 318.679C154.341 318.999 154.105 319.323 153.865 319.651C153.633 319.979 153.417 320.255 153.217 320.479L152.461 320.107C152.581 319.931 152.709 319.735 152.845 319.519C152.981 319.295 153.109 319.071 153.229 318.847C153.349 318.615 153.445 318.407 153.517 318.223ZM154.909 319.087L155.929 319.591C155.657 319.919 155.365 320.259 155.053 320.611C154.741 320.963 154.429 321.303 154.117 321.631C153.805 321.951 153.509 322.231 153.229 322.471L152.509 322.039C152.781 321.783 153.061 321.483 153.349 321.139C153.645 320.795 153.929 320.443 154.201 320.083C154.481 319.723 154.717 319.391 154.909 319.087ZM154.393 324.655L155.629 325.159C155.269 325.807 154.837 326.407 154.333 326.959C153.837 327.511 153.285 328.003 152.677 328.435C152.077 328.875 151.437 329.259 150.757 329.587C150.669 329.411 150.537 329.219 150.361 329.011C150.193 328.811 150.025 328.639 149.857 328.495C150.489 328.231 151.093 327.911 151.669 327.535C152.245 327.159 152.765 326.727 153.229 326.239C153.701 325.751 154.089 325.223 154.393 324.655Z" fill="#27272A"/>
<rect x="37.9157" y="296.334" width="39" height="21.1364" rx="10.5682" fill="white"/>
<rect x="37.9157" y="296.334" width="39" height="21.1364" rx="10.5682" stroke="#E4E4E7"/>
<path d="M46.4717 302.79H56.3837V308.814H54.8717V304.206H47.9117V308.874H46.4717V302.79ZM47.2157 306.798H55.7117V308.214H47.2157V306.798ZM50.6237 300.702H52.1477V311.97H50.6237V300.702ZM60.3917 303.15H66.3197V304.398H60.3917V303.15ZM60.7157 305.538H66.0557V306.75H60.7157V305.538ZM60.2717 308.178H66.5237V309.354H60.2717V308.178ZM62.6837 303.546H64.0157V308.802H62.6837V303.546ZM64.3997 307.134L65.3117 306.666C65.4877 306.834 65.6717 307.03 65.8637 307.254C66.0557 307.47 66.1997 307.662 66.2957 307.83L65.3357 308.37C65.2397 308.202 65.0997 308.002 64.9157 307.77C64.7397 307.538 64.5677 307.326 64.3997 307.134ZM58.3277 301.182H68.4677V311.958H66.9317V302.502H59.7917V311.958H58.3277V301.182ZM59.1317 310.038H67.6397V311.37H59.1317V310.038Z" fill="#27272A"/>
<rect x="71.6168" y="341.549" width="39" height="21.1364" rx="10.5682" fill="white"/>
<rect x="71.6168" y="341.549" width="39" height="21.1364" rx="10.5682" stroke="#E4E4E7"/>
<path d="M80.0648 346.973H90.2168V356.753H88.6928V348.365H81.5168V356.849H80.0648V346.973ZM80.8328 354.677H89.4848V356.057H80.8328V354.677ZM85.5248 347.981H86.9288V351.317C86.9288 351.501 86.9408 351.609 86.9648 351.641C87.0048 351.681 87.0688 351.701 87.1568 351.701C87.1968 351.701 87.2488 351.701 87.3128 351.701C87.3768 351.701 87.4288 351.701 87.4688 351.701C87.5088 351.701 87.5488 351.697 87.5888 351.689C87.6368 351.681 87.6728 351.669 87.6968 351.653C87.7208 351.637 87.7448 351.613 87.7688 351.581C87.8008 351.541 87.8208 351.481 87.8288 351.401C87.8448 351.321 87.8528 351.197 87.8528 351.029C87.8608 350.853 87.8688 350.653 87.8768 350.429C88.0048 350.541 88.1728 350.653 88.3808 350.765C88.5968 350.877 88.7968 350.961 88.9808 351.017C88.9648 351.257 88.9408 351.497 88.9088 351.737C88.8848 351.969 88.8488 352.141 88.8008 352.253C88.7448 352.373 88.6768 352.473 88.5968 352.553C88.5248 352.625 88.4288 352.689 88.3088 352.745C88.2128 352.793 88.0928 352.829 87.9488 352.853C87.8128 352.869 87.6848 352.877 87.5648 352.877C87.4928 352.877 87.4088 352.877 87.3128 352.877C87.2168 352.877 87.1208 352.877 87.0248 352.877C86.9368 352.877 86.8568 352.877 86.7848 352.877C86.6248 352.877 86.4608 352.853 86.2928 352.805C86.1248 352.757 85.9808 352.681 85.8608 352.577C85.7488 352.473 85.6648 352.333 85.6088 352.157C85.5528 351.981 85.5248 351.689 85.5248 351.281V347.981ZM83.1008 347.957H84.5048C84.4808 348.781 84.4128 349.545 84.3008 350.249C84.1888 350.953 83.9888 351.585 83.7008 352.145C83.4128 352.705 82.9768 353.185 82.3928 353.585C82.3128 353.417 82.1848 353.229 82.0088 353.021C81.8328 352.805 81.6648 352.633 81.5048 352.505C81.9768 352.193 82.3208 351.813 82.5368 351.365C82.7528 350.909 82.8968 350.397 82.9688 349.829C83.0408 349.253 83.0848 348.629 83.1008 347.957ZM94.0928 348.365H100.021V349.613H94.0928V348.365ZM94.4168 350.753H99.7568V351.965H94.4168V350.753ZM93.9728 353.393H100.225V354.569H93.9728V353.393ZM96.3848 348.761H97.7168V354.017H96.3848V348.761ZM98.1008 352.349L99.0128 351.881C99.1888 352.049 99.3728 352.245 99.5648 352.469C99.7568 352.685 99.9008 352.877 99.9968 353.045L99.0368 353.585C98.9408 353.417 98.8008 353.217 98.6168 352.985C98.4408 352.753 98.2688 352.541 98.1008 352.349ZM92.0288 346.397H102.169V357.173H100.633V347.717H93.4928V357.173H92.0288V346.397ZM92.8328 355.253H101.341V356.585H92.8328V355.253Z" fill="#27272A"/>
<rect x="7.50002" y="379.5" width="87" height="21.1364" rx="10.5682" fill="white"/>
<rect x="7.50002" y="379.5" width="87" height="21.1364" rx="10.5682" stroke="#E4E4E7"/>
<path d="M18.864 384.036H20.436C20.428 384.988 20.408 385.916 20.376 386.82C20.344 387.716 20.264 388.572 20.136 389.388C20.008 390.196 19.8 390.956 19.512 391.668C19.224 392.372 18.82 393.02 18.3 393.612C17.788 394.196 17.124 394.708 16.308 395.148C16.244 395.028 16.152 394.892 16.032 394.74C15.912 394.596 15.784 394.452 15.648 394.308C15.52 394.172 15.392 394.064 15.264 393.984C16.024 393.592 16.632 393.14 17.088 392.628C17.552 392.116 17.908 391.552 18.156 390.936C18.404 390.312 18.576 389.636 18.672 388.908C18.768 388.18 18.82 387.408 18.828 386.592C18.844 385.776 18.856 384.924 18.864 384.036ZM15.876 386.82H23.256V388.272H15.876V386.82ZM22.464 386.82H23.964V392.988C23.964 393.244 23.984 393.408 24.024 393.48C24.064 393.544 24.156 393.576 24.3 393.576C24.332 393.576 24.384 393.576 24.456 393.576C24.528 393.576 24.608 393.576 24.696 393.576C24.784 393.576 24.864 393.576 24.936 393.576C25.016 393.576 25.072 393.576 25.104 393.576C25.208 393.576 25.284 393.528 25.332 393.432C25.38 393.336 25.416 393.156 25.44 392.892C25.464 392.628 25.484 392.244 25.5 391.74C25.62 391.828 25.756 391.912 25.908 391.992C26.068 392.072 26.232 392.148 26.4 392.22C26.568 392.284 26.72 392.332 26.856 392.364C26.816 393.012 26.74 393.528 26.628 393.912C26.516 394.288 26.352 394.556 26.136 394.716C25.92 394.884 25.628 394.968 25.26 394.968C25.196 394.968 25.108 394.968 24.996 394.968C24.884 394.968 24.764 394.968 24.636 394.968C24.508 394.968 24.388 394.968 24.276 394.968C24.172 394.968 24.092 394.968 24.036 394.968C23.644 394.968 23.332 394.908 23.1 394.788C22.876 394.676 22.712 394.476 22.608 394.188C22.512 393.9 22.464 393.496 22.464 392.976V386.82ZM29.712 384.072H31.14V387.9C31.14 388.524 31.112 389.16 31.056 389.808C31 390.456 30.884 391.096 30.708 391.728C30.54 392.36 30.284 392.964 29.94 393.54C29.596 394.116 29.136 394.648 28.56 395.136C28.488 395.016 28.388 394.884 28.26 394.74C28.14 394.596 28.012 394.456 27.876 394.32C27.748 394.192 27.628 394.088 27.516 394.008C28.012 393.592 28.404 393.14 28.692 392.652C28.988 392.164 29.208 391.652 29.352 391.116C29.496 390.58 29.592 390.04 29.64 389.496C29.688 388.944 29.712 388.408 29.712 387.888V384.072ZM33.06 384.336H34.476V394.344H33.06V384.336ZM36.516 384.036H37.956V395.016H36.516V384.036ZM28.152 386.808L29.388 387.132C29.332 387.532 29.264 387.948 29.184 388.38C29.104 388.812 29.004 389.228 28.884 389.628C28.772 390.02 28.636 390.364 28.476 390.66L27.228 390.156C27.388 389.86 27.528 389.528 27.648 389.16C27.768 388.792 27.868 388.408 27.948 388.008C28.036 387.6 28.104 387.2 28.152 386.808ZM30.948 387.516L32.076 387.024C32.22 387.36 32.356 387.716 32.484 388.092C32.612 388.46 32.724 388.82 32.82 389.172C32.924 389.516 32.996 389.824 33.036 390.096L31.812 390.66C31.788 390.388 31.732 390.072 31.644 389.712C31.556 389.352 31.452 388.98 31.332 388.596C31.212 388.212 31.084 387.852 30.948 387.516ZM34.272 387.492L35.352 386.94C35.528 387.252 35.7 387.588 35.868 387.948C36.036 388.308 36.184 388.66 36.312 389.004C36.448 389.34 36.544 389.64 36.6 389.904L35.436 390.552C35.388 390.28 35.3 389.968 35.172 389.616C35.052 389.264 34.916 388.904 34.764 388.536C34.612 388.168 34.448 387.82 34.272 387.492ZM45 387.972C45.288 387.972 45.544 388.044 45.768 388.188C46 388.324 46.184 388.508 46.32 388.74C46.464 388.964 46.536 389.22 46.536 389.508C46.536 389.788 46.464 390.044 46.32 390.276C46.184 390.508 46 390.696 45.768 390.84C45.544 390.976 45.288 391.044 45 391.044C44.72 391.044 44.464 390.976 44.232 390.84C44 390.696 43.812 390.508 43.668 390.276C43.532 390.044 43.464 389.788 43.464 389.508C43.464 389.22 43.532 388.964 43.668 388.74C43.812 388.508 44 388.324 44.232 388.188C44.464 388.044 44.72 387.972 45 387.972ZM55.2 386.184H62.412V391.848H60.996V387.576H56.544V391.944H55.2V386.184ZM58.02 383.928H59.472V395.112H58.02V383.928ZM55.908 389.868H61.62V391.26H55.908V389.868ZM52.068 384.984L52.848 383.916C53.112 384.012 53.388 384.132 53.676 384.276C53.964 384.412 54.236 384.556 54.492 384.708C54.756 384.86 54.972 385.008 55.14 385.152L54.3 386.328C54.148 386.184 53.944 386.032 53.688 385.872C53.44 385.704 53.172 385.544 52.884 385.392C52.596 385.232 52.324 385.096 52.068 384.984ZM51.348 388.236L52.104 387.156C52.36 387.244 52.636 387.356 52.932 387.492C53.228 387.62 53.508 387.756 53.772 387.9C54.044 388.044 54.264 388.184 54.432 388.32L53.616 389.52C53.464 389.376 53.26 389.228 53.004 389.076C52.748 388.916 52.472 388.764 52.176 388.62C51.888 388.476 51.612 388.348 51.348 388.236ZM51.768 394.044C51.976 393.74 52.204 393.384 52.452 392.976C52.708 392.56 52.968 392.12 53.232 391.656C53.496 391.184 53.744 390.72 53.976 390.264L55.044 391.2C54.844 391.616 54.628 392.044 54.396 392.484C54.172 392.916 53.94 393.344 53.7 393.768C53.468 394.192 53.236 394.6 53.004 394.992L51.768 394.044ZM68.796 390.588H73.488V391.572H68.796V390.588ZM69.468 386.88V387.516H72.828V386.88H69.468ZM69.468 385.356V385.968H72.828V385.356H69.468ZM68.256 384.396H74.1V388.476H68.256V384.396ZM70.5 384.84H71.796V393.42C71.796 393.692 71.82 393.864 71.868 393.936C71.916 394.008 72.032 394.044 72.216 394.044C72.256 394.044 72.324 394.044 72.42 394.044C72.516 394.044 72.624 394.044 72.744 394.044C72.864 394.044 72.976 394.044 73.08 394.044C73.184 394.044 73.256 394.044 73.296 394.044C73.448 394.044 73.548 393.98 73.596 393.852C73.652 393.724 73.692 393.472 73.716 393.096C73.852 393.192 74.028 393.284 74.244 393.372C74.46 393.46 74.656 393.524 74.832 393.564C74.776 394.156 74.644 394.568 74.436 394.8C74.228 395.032 73.884 395.148 73.404 395.148C73.34 395.148 73.24 395.148 73.104 395.148C72.976 395.148 72.836 395.148 72.684 395.148C72.54 395.148 72.404 395.148 72.276 395.148C72.148 395.148 72.052 395.148 71.988 395.148C71.596 395.148 71.292 395.096 71.076 394.992C70.86 394.896 70.708 394.72 70.62 394.464C70.54 394.208 70.5 393.856 70.5 393.408V384.84ZM68.112 388.968H69.372V393.912H68.112V388.968ZM68.868 388.968H74.328V393.216H68.868V392.196H73.032V389.976H68.868V388.968ZM65.148 383.88L66.396 384.324C66.236 384.636 66.068 384.956 65.892 385.284C65.716 385.604 65.544 385.916 65.376 386.22C65.208 386.516 65.048 386.776 64.896 387L63.936 386.604C64.08 386.356 64.228 386.076 64.38 385.764C64.532 385.452 64.676 385.128 64.812 384.792C64.956 384.456 65.068 384.152 65.148 383.88ZM66.504 385.308L67.68 385.836C67.384 386.284 67.064 386.756 66.72 387.252C66.376 387.748 66.032 388.224 65.688 388.68C65.344 389.136 65.016 389.536 64.704 389.88L63.876 389.424C64.1 389.152 64.332 388.848 64.572 388.512C64.82 388.168 65.06 387.812 65.292 387.444C65.532 387.068 65.756 386.696 65.964 386.328C66.172 385.96 66.352 385.62 66.504 385.308ZM63.3 386.688L64.008 385.716C64.208 385.908 64.416 386.116 64.632 386.34C64.848 386.564 65.048 386.788 65.232 387.012C65.416 387.236 65.552 387.444 65.64 387.636L64.872 388.728C64.784 388.536 64.652 388.32 64.476 388.08C64.308 387.84 64.12 387.6 63.912 387.36C63.704 387.112 63.5 386.888 63.3 386.688ZM66.096 388.176L67.104 387.768C67.264 388.032 67.416 388.32 67.56 388.632C67.704 388.944 67.832 389.248 67.944 389.544C68.056 389.832 68.136 390.092 68.184 390.324L67.092 390.804C67.06 390.572 66.992 390.304 66.888 390C66.784 389.696 66.664 389.388 66.528 389.076C66.392 388.756 66.248 388.456 66.096 388.176ZM63.264 389.136C63.8 389.112 64.432 389.08 65.16 389.04C65.888 388.992 66.628 388.944 67.38 388.896L67.404 390.072C66.692 390.136 65.98 390.192 65.268 390.24C64.564 390.288 63.928 390.336 63.36 390.384L63.264 389.136ZM66.432 391.188L67.428 390.888C67.572 391.216 67.7 391.58 67.812 391.98C67.932 392.38 68.008 392.72 68.04 393L66.972 393.348C66.948 393.06 66.884 392.716 66.78 392.316C66.684 391.908 66.568 391.532 66.432 391.188ZM63.78 390.924L64.932 391.128C64.868 391.704 64.772 392.272 64.644 392.832C64.524 393.384 64.38 393.852 64.212 394.236C64.132 394.18 64.028 394.12 63.9 394.056C63.772 393.992 63.64 393.932 63.504 393.876C63.368 393.812 63.252 393.764 63.156 393.732C63.332 393.372 63.468 392.94 63.564 392.436C63.66 391.932 63.732 391.428 63.78 390.924ZM65.088 389.784H66.336V395.148H65.088V389.784ZM79.764 386.796V387.42H83.736V386.796H79.764ZM79.764 388.332V388.944H83.736V388.332H79.764ZM79.764 385.272V385.884H83.736V385.272H79.764ZM78.408 384.3H85.14V389.928H78.408V384.3ZM82.524 392.832L83.76 392.052C84.064 392.252 84.392 392.48 84.744 392.736C85.096 392.984 85.436 393.236 85.764 393.492C86.1 393.748 86.372 393.976 86.58 394.176L85.248 395.076C85.056 394.868 84.804 394.632 84.492 394.368C84.188 394.112 83.86 393.848 83.508 393.576C83.156 393.304 82.828 393.056 82.524 392.832ZM80.256 391.092H81.78V395.148H80.256V391.092ZM76.956 390.54H86.436V391.812H76.956V390.54ZM76.128 385.008H77.568V392.064H76.128V385.008ZM78.012 392.148L79.524 392.712C79.268 393.008 78.976 393.3 78.648 393.588C78.32 393.876 77.98 394.148 77.628 394.404C77.284 394.66 76.948 394.88 76.62 395.064C76.524 394.96 76.404 394.848 76.26 394.728C76.116 394.608 75.972 394.488 75.828 394.368C75.684 394.256 75.556 394.164 75.444 394.092C75.772 393.932 76.096 393.744 76.416 393.528C76.744 393.312 77.048 393.084 77.328 392.844C77.608 392.604 77.836 392.372 78.012 392.148Z" fill="#27272A"/>
</svg>
